<svg height="79.459999" width="291" xmlns="http://www.w3.org/2000/svg"><g transform="matrix(1.018827 0 0 -1.018827 -29.95238 104.07061)"><path d="m239.3298 95.036c0 2.96 2.4604 5.361 5.4956 5.361h63.376c3.0351 0 5.4956-2.401 5.4956-5.361v-64.117c0-2.961-2.4605-5.361-5.4956-5.361h-63.376c-3.0352 0-5.4956 2.4-5.4956 5.361z" fill="#069"/><g fill="#fff" fill-rule="evenodd"><path d="m31.1516 37.709h31.0356v10.189h-19.8042v38.874h-11.2314z"/><path d="m77.9001 37.709v33.793h-11.2324v-33.793zm-5.6162 38.407c3.917 0 6.355 2.595 6.355 5.84-.073 3.315-2.438 5.837-6.2803 5.837-3.8428 0-6.355-2.522-6.355-5.837 0-3.245 2.4375-5.84 6.207-5.84h.073z"/><path d="m83.1154 37.709h11.2325v18.872c0 1.01.073 2.019.3701 2.741.8115 2.017 2.6596 4.107 5.7627 4.107 4.0649 0 5.6909-3.1 5.6909-7.64v-18.08h11.2314v19.377c0 10.38-5.542 15.21-12.9321 15.21-6.0591 0-8.7197-3.387-10.1978-5.694h.075v4.9h-11.2325c.1475-3.171 0-33.793 0-33.793z"/><path d="m133.2487 86.772h-11.2329v-49.063h11.2329v10.956l2.8072 3.534 8.7939-14.49h13.8179l-14.7783 20.977 12.9316 14.272h-13.5225s-9.2368-12.769-10.0498-14.283z"/><path d="m188.7062 51.805c.1475.868.3697 2.533.3697 4.415 0 8.736-4.4346 17.604-16.1094 17.604-12.4888 0-18.2524-9.877-18.2524-18.835 0-11.08 7.02-18 19.2866-18 4.8774 0 9.3843.72 13.0796 2.234l-1.4785 7.418c-3.0293-1.005-6.1329-1.507-9.9751-1.507-5.2466 0-9.8277 2.153-10.1978 6.743l23.2773-.07zm-23.3505 7.599c.2954 2.884 2.2168 7.138 7.02 7.138 5.0976 0 6.2807-4.543 6.2807-7.138z"/><path d="m216.801 86.772v-16.984h-.1475c-1.626 2.377-5.0259 3.963-9.5322 3.963-8.6465 0-16.2573-6.92-16.1841-18.741 0-10.958 6.8726-18.094 15.4443-18.094 4.6553 0 9.0889 2.019 11.3057 5.912h.2222l.4433-5.119h9.9766c-.148 2.379-.2969 6.488-.2969 10.524v38.539zm0-33.421c0-.864-.074-1.73-.2222-2.45-.6641-3.1-3.3252-5.262-6.5757-5.262-4.6557 0-7.6855 3.748-7.6855 9.659 0 5.55 2.5869 10.019 7.7588 10.019 3.4726 0 5.9116-2.378 6.5771-5.333.1475-.65.1475-1.371.1475-2.019z"/><path d="m261.8728 37.749v33.794h-11.2325v-33.794zm-5.6163 38.408c3.917 0 6.355 2.595 6.355 5.838-.073 3.316-2.438 5.839-6.2807 5.839-3.8423 0-6.3545-2.523-6.3545-5.839 0-3.243 2.4375-5.838 6.207-5.838h.073z"/><path d="m268.0881 37.749h11.2324v18.872c0 1.01.073 2.019.3696 2.741.812 2.018 2.6602 4.108 5.7632 4.108 4.0645 0 5.6904-3.099 5.6904-7.642v-18.079h11.2315v19.377c0 10.38-5.5415 15.21-12.9316 15.21-6.0596 0-8.7198-3.387-10.1978-5.694h.075v4.901h-11.2324c.1474-3.171 0-33.794 0-33.794z"/></g></g></svg>